M48
; DRILL file {KiCad (5.1.9)-1} date 04/04/21 13:29:22
; FORMAT={-:-/ absolute / inch / decimal}
; #@! TF.CreationDate,2021-04-04T13:29:22+02:00
; #@! TF.GenerationSoftware,Kicad,Pcbnew,(5.1.9)-1
; #@! TF.FileFunction,Plated,1,2,PTH
FMAT,2
INCH
T1C0.0157
T2C0.0315
T3C0.0354
T4C0.0400
T5C0.0433
T6C0.0453
T7C0.0472
T8C0.0512
T9C0.0531
T10C0.0551
T11C0.0591
%
G90
G05
T1
X5.4907Y-1.4915
X5.5694Y-1.4915
X5.5694Y-1.6883
X5.6481Y-1.4915
X5.6481Y-1.6883
X5.7269Y-1.4915
X5.7269Y-1.6883
X5.8056Y-1.4915
X5.8056Y-1.6883
X5.8844Y-1.4915
X5.8844Y-1.6883
X5.9631Y-1.4915
X5.9631Y-1.6883
X6.0419Y-1.4915
X6.0419Y-1.6883
X6.1206Y-1.4915
X6.1206Y-1.6883
X6.1993Y-1.6883
T2
X4.65Y-1.6
X4.7484Y-1.6
X5.1741Y-2.3966
X5.2528Y-2.3966
X5.3315Y-2.3966
X5.4103Y-2.3966
X5.489Y-2.3966
X5.4907Y-1.6883
X5.5678Y-2.3966
X5.6465Y-2.3966
X5.7252Y-2.3966
X5.775Y-4.075
X5.925Y-1.85
X5.925Y-1.95
X5.925Y-2.05
X5.925Y-2.15
X5.925Y-2.25
X5.925Y-2.35
X5.925Y-2.45
X5.925Y-2.55
X5.925Y-2.65
X5.9719Y-4.075
X6.225Y-1.85
X6.225Y-1.95
X6.225Y-2.05
X6.225Y-2.15
X6.225Y-2.25
X6.225Y-2.35
X6.225Y-2.45
X6.225Y-2.55
X6.225Y-2.65
X6.2281Y-4.075
X6.425Y-1.85
X6.425Y-1.975
X6.425Y-2.1
X6.425Y-2.225
X6.425Y-2.35
X6.425Y-2.475
X6.425Y-2.6
X6.425Y-2.725
X6.425Y-4.075
X6.825Y-1.85
X6.825Y-1.975
X6.825Y-2.1
X6.825Y-2.225
X6.825Y-2.35
X6.825Y-2.475
X6.825Y-2.6
X6.825Y-2.725
T3
X7.125Y-1.85
X7.125Y-1.95
X7.125Y-2.05
X7.125Y-2.15
X7.125Y-2.25
X7.125Y-2.35
X7.125Y-2.575
X7.125Y-2.8
X7.225Y-1.85
X7.225Y-1.95
X7.225Y-2.05
X7.225Y-2.15
X7.225Y-2.25
X7.225Y-2.35
X7.225Y-2.575
X7.225Y-2.8
T4
X5.42Y-3.04
X5.42Y-3.34
X5.42Y-3.44
X5.42Y-3.54
X5.42Y-3.64
X5.52Y-3.04
X5.52Y-3.64
X5.62Y-3.04
X5.62Y-3.64
X5.72Y-3.04
X5.72Y-3.64
X5.82Y-3.04
X5.82Y-3.64
X5.92Y-3.04
X5.92Y-3.64
X6.02Y-3.04
X6.02Y-3.64
X6.07Y-3.54
X6.12Y-3.04
X6.12Y-3.64
X6.17Y-3.54
X6.22Y-3.04
X6.22Y-3.64
X6.32Y-3.04
X6.32Y-3.64
X6.42Y-3.04
X6.42Y-3.64
X6.52Y-3.04
X6.52Y-3.64
T5
X7.025Y-3.05
X7.025Y-3.2272
X7.2809Y-3.05
X7.2809Y-3.2272
T6
X4.65Y-4.55
X4.65Y-4.7469
X4.8469Y-4.55
X4.8469Y-4.7469
X5.0437Y-4.55
X5.0437Y-4.7469
X5.85Y-4.55
X5.85Y-4.7469
X6.0469Y-4.55
X6.0469Y-4.7469
X6.5Y-4.55
X6.5Y-4.7469
X6.6969Y-4.55
X6.6969Y-4.7469
X9.6Y-2.2007
X9.6Y-2.3976
X9.6Y-2.5944
X9.6Y-2.7913
X9.6Y-2.9881
X9.6Y-3.185
X9.7969Y-2.2007
X9.7969Y-2.3976
X9.7969Y-2.5944
X9.7969Y-2.7913
X9.7969Y-2.9881
X9.7969Y-3.185
T7
X7.7407Y-4.625
X8.1344Y-4.625
X8.4297Y-4.625
X8.725Y-4.625
T8
X7.6909Y-1.7388
X7.6909Y-2.2112
X7.6909Y-2.4388
X7.6909Y-2.9112
X7.6909Y-3.1388
X7.6909Y-3.6112
X7.6909Y-3.8388
X7.6909Y-4.3112
X8.1713Y-1.7388
X8.1713Y-2.2112
X8.1713Y-2.4388
X8.1713Y-2.9112
X8.1713Y-3.1388
X8.1713Y-3.6112
X8.1713Y-3.8388
X8.1713Y-4.3112
X8.25Y-1.975
X8.25Y-2.675
X8.25Y-3.375
X8.25Y-4.075
X8.6159Y-1.7388
X8.6159Y-2.2112
X8.6159Y-2.4388
X8.6159Y-2.9112
X8.6159Y-3.1388
X8.6159Y-3.6112
X9.0963Y-1.7388
X9.0963Y-2.2112
X9.0963Y-2.4388
X9.0963Y-2.9112
X9.0963Y-3.1388
X9.0963Y-3.6112
X9.175Y-1.975
X9.175Y-2.675
X9.175Y-3.375
T9
X4.85Y-3.85
X4.85Y-4.15
X5.05Y-3.85
X5.05Y-4.15
T10
X8.5Y-3.85
X8.5Y-4.025
X8.5Y-4.2
X8.9Y-3.85
X8.9Y-4.025
X8.9Y-4.2
X9.05Y-3.85
X9.05Y-4.025
X9.05Y-4.2
X9.45Y-3.85
X9.45Y-4.025
X9.45Y-4.2
T11
X4.43Y-3.55
X4.5383Y-2.0343
X4.8532Y-2.0343
X4.8532Y-3.55
T0
M30
