%TF.GenerationSoftware,KiCad,Pcbnew,(5.1.9)-1*%
%TF.CreationDate,2021-04-04T13:29:14+02:00*%
%TF.ProjectId,Rollosteuerung,526f6c6c-6f73-4746-9575-6572756e672e,1.0*%
%TF.SameCoordinates,Original*%
%TF.FileFunction,Soldermask,Bot*%
%TF.FilePolarity,Negative*%
%FSLAX46Y46*%
G04 Gerber Fmt 4.6, Leading zero omitted, Abs format (unit mm)*
G04 Created by KiCad (PCBNEW (5.1.9)-1) date 2021-04-04 13:29:14*
%MOMM*%
%LPD*%
G01*
G04 APERTURE LIST*
%ADD10O,2.500000X2.500000*%
%ADD11R,2.500000X2.500000*%
%ADD12C,1.600000*%
%ADD13O,1.600000X1.600000*%
%ADD14C,1.727200*%
%ADD15R,1.727200X1.727200*%
%ADD16R,1.800000X1.800000*%
%ADD17C,1.800000*%
%ADD18R,1.600000X1.600000*%
%ADD19O,2.800000X2.800000*%
%ADD20R,2.800000X2.800000*%
%ADD21C,1.350000*%
%ADD22O,3.000000X1.500000*%
%ADD23R,3.000000X1.500000*%
%ADD24C,2.000000*%
%ADD25C,2.350000*%
%ADD26O,1.500000X3.000000*%
%ADD27R,1.500000X3.000000*%
%ADD28R,2.000000X2.000000*%
%ADD29R,3.000000X3.000000*%
%ADD30C,3.000000*%
%ADD31C,3.200000*%
G04 APERTURE END LIST*
D10*
%TO.C,RLY5*%
X207550000Y-91725000D03*
X195350000Y-91725000D03*
X195350000Y-79725000D03*
X207550000Y-79725000D03*
D11*
X209550000Y-85725000D03*
%TD*%
D10*
%TO.C,RLY4*%
X231045000Y-73945000D03*
X218845000Y-73945000D03*
X218845000Y-61945000D03*
X231045000Y-61945000D03*
D11*
X233045000Y-67945000D03*
%TD*%
D12*
%TO.C,R6*%
X163195000Y-62865000D03*
D13*
X173355000Y-62865000D03*
%TD*%
D14*
%TO.C,X1*%
X137668000Y-92456000D03*
X137668000Y-89916000D03*
X137668000Y-87376000D03*
D15*
X137668000Y-84836000D03*
D14*
X140208000Y-92456000D03*
X145288000Y-92456000D03*
X142748000Y-92456000D03*
X152908000Y-92456000D03*
X155448000Y-92456000D03*
X150368000Y-92456000D03*
X147828000Y-92456000D03*
X157988000Y-92456000D03*
X160528000Y-92456000D03*
D15*
X165608000Y-92456000D03*
D14*
X163068000Y-92456000D03*
X163068000Y-77216000D03*
D15*
X165608000Y-77216000D03*
D14*
X160528000Y-77216000D03*
X157988000Y-77216000D03*
X147828000Y-77216000D03*
X150368000Y-77216000D03*
X155448000Y-77216000D03*
X152908000Y-77216000D03*
X142748000Y-77216000D03*
X145288000Y-77216000D03*
X140208000Y-77216000D03*
X137668000Y-77216000D03*
X156718000Y-89916000D03*
X154178000Y-89916000D03*
%TD*%
D12*
%TO.C,C3*%
X146685000Y-103505000D03*
X151685000Y-103505000D03*
%TD*%
%TO.C,C1*%
X163195000Y-103505000D03*
X158195000Y-103505000D03*
%TD*%
D16*
%TO.C,D8*%
X183515000Y-71120000D03*
D17*
X180975000Y-71120000D03*
%TD*%
D16*
%TO.C,D7*%
X183515000Y-65405000D03*
D17*
X180975000Y-65405000D03*
%TD*%
D13*
%TO.C,R5*%
X173355000Y-59690000D03*
D12*
X163195000Y-59690000D03*
%TD*%
D13*
%TO.C,R2*%
X173355000Y-50165000D03*
D12*
X163195000Y-50165000D03*
%TD*%
D13*
%TO.C,U2*%
X158115000Y-46990000D03*
X150495000Y-67310000D03*
X158115000Y-49530000D03*
X150495000Y-64770000D03*
X158115000Y-52070000D03*
X150495000Y-62230000D03*
X158115000Y-54610000D03*
X150495000Y-59690000D03*
X158115000Y-57150000D03*
X150495000Y-57150000D03*
X158115000Y-59690000D03*
X150495000Y-54610000D03*
X158115000Y-62230000D03*
X150495000Y-52070000D03*
X158115000Y-64770000D03*
X150495000Y-49530000D03*
X158115000Y-67310000D03*
D18*
X150495000Y-46990000D03*
%TD*%
D10*
%TO.C,RLY7*%
X207550000Y-109505000D03*
X195350000Y-109505000D03*
X195350000Y-97505000D03*
X207550000Y-97505000D03*
D11*
X209550000Y-103505000D03*
%TD*%
D10*
%TO.C,RLY6*%
X231045000Y-91725000D03*
X218845000Y-91725000D03*
X218845000Y-79725000D03*
X231045000Y-79725000D03*
D11*
X233045000Y-85725000D03*
%TD*%
D10*
%TO.C,RLY3*%
X207550000Y-73945000D03*
X195350000Y-73945000D03*
X195350000Y-61945000D03*
X207550000Y-61945000D03*
D11*
X209550000Y-67945000D03*
%TD*%
D10*
%TO.C,RLY2*%
X231045000Y-56165000D03*
X218845000Y-56165000D03*
X218845000Y-44165000D03*
X231045000Y-44165000D03*
D11*
X233045000Y-50165000D03*
%TD*%
D10*
%TO.C,RLY1*%
X207550000Y-56165000D03*
X195350000Y-56165000D03*
X195350000Y-44165000D03*
X207550000Y-44165000D03*
D11*
X209550000Y-50165000D03*
%TD*%
D19*
%TO.C,D15*%
X229870000Y-97790000D03*
D20*
X240030000Y-97790000D03*
%TD*%
D19*
%TO.C,D14*%
X229870000Y-102235000D03*
D20*
X240030000Y-102235000D03*
%TD*%
D19*
%TO.C,D13*%
X229870000Y-106680000D03*
D20*
X240030000Y-106680000D03*
%TD*%
D19*
%TO.C,D12*%
X226060000Y-106680000D03*
D20*
X215900000Y-106680000D03*
%TD*%
D19*
%TO.C,D11*%
X226060000Y-102235000D03*
D20*
X215900000Y-102235000D03*
%TD*%
D19*
%TO.C,D10*%
X226060000Y-97790000D03*
D20*
X215900000Y-97790000D03*
%TD*%
D21*
%TO.C,AE1*%
X139463000Y-42884000D03*
%TD*%
D22*
%TO.C,J4*%
X248840000Y-55899000D03*
X243840000Y-55899000D03*
X248840000Y-60899000D03*
X243840000Y-60899000D03*
X248840000Y-65899000D03*
X243840000Y-65899000D03*
X248840000Y-70899000D03*
X243840000Y-70899000D03*
X248840000Y-75899000D03*
X243840000Y-75899000D03*
D23*
X248840000Y-80899000D03*
X243840000Y-80899000D03*
%TD*%
D24*
%TO.C,SW1*%
X184935000Y-77470000D03*
X184935000Y-81970000D03*
X178435000Y-77470000D03*
X178435000Y-81970000D03*
%TD*%
D25*
%TO.C,F1*%
X123190000Y-97790000D03*
X123190000Y-105410000D03*
X128270000Y-105410000D03*
X128270000Y-97790000D03*
%TD*%
D21*
%TO.C,U1*%
X143421000Y-60873000D03*
X141421000Y-60873000D03*
X139421000Y-60873000D03*
X137421000Y-60873000D03*
X135421000Y-60873000D03*
X133421000Y-60873000D03*
X131421000Y-60873000D03*
X145421000Y-60873000D03*
%TD*%
D26*
%TO.C,J2*%
X153590000Y-120570000D03*
X153590000Y-115570000D03*
D27*
X148590000Y-120570000D03*
X148590000Y-115570000D03*
%TD*%
D26*
%TO.C,J1*%
X128110000Y-120570000D03*
X128110000Y-115570000D03*
X123110000Y-120570000D03*
X123110000Y-115570000D03*
D27*
X118110000Y-120570000D03*
X118110000Y-115570000D03*
%TD*%
D26*
%TO.C,J3*%
X170100000Y-120570000D03*
X170100000Y-115570000D03*
D27*
X165100000Y-120570000D03*
X165100000Y-115570000D03*
%TD*%
D12*
%TO.C,C2*%
X120610000Y-40640000D03*
D18*
X118110000Y-40640000D03*
%TD*%
D28*
%TO.C,D9*%
X221615000Y-117475000D03*
D24*
X214115000Y-117475000D03*
X206615000Y-117475000D03*
X196615000Y-117475000D03*
%TD*%
D16*
%TO.C,D6*%
X180975000Y-59690000D03*
D17*
X183515000Y-59690000D03*
%TD*%
%TO.C,D5*%
X183515000Y-57150000D03*
D16*
X180975000Y-57150000D03*
%TD*%
D17*
%TO.C,D4*%
X183515000Y-54610000D03*
D16*
X180975000Y-54610000D03*
%TD*%
D17*
%TO.C,D3*%
X183515000Y-52070000D03*
D16*
X180975000Y-52070000D03*
%TD*%
D17*
%TO.C,D2*%
X183515000Y-49530000D03*
D16*
X180975000Y-49530000D03*
%TD*%
D17*
%TO.C,D1*%
X183515000Y-46990000D03*
D16*
X180975000Y-46990000D03*
%TD*%
D29*
%TO.C,PS1*%
X112522000Y-90170000D03*
D30*
X115272000Y-51670000D03*
X123272000Y-90170000D03*
X123272000Y-51670000D03*
%TD*%
D31*
%TO.C,H1*%
X104140000Y-35560000D03*
%TD*%
%TO.C,H2*%
X104140000Y-121920000D03*
%TD*%
%TO.C,H3*%
X250190000Y-35560000D03*
%TD*%
%TO.C,H4*%
X250190000Y-121920000D03*
%TD*%
D12*
%TO.C,R1*%
X163195000Y-46990000D03*
D13*
X173355000Y-46990000D03*
%TD*%
%TO.C,R3*%
X173355000Y-53340000D03*
D12*
X163195000Y-53340000D03*
%TD*%
%TO.C,R4*%
X163195000Y-56515000D03*
D13*
X173355000Y-56515000D03*
%TD*%
D12*
%TO.C,R7*%
X173355000Y-66040000D03*
D13*
X163195000Y-66040000D03*
%TD*%
D12*
%TO.C,R8*%
X173355000Y-69215000D03*
D13*
X163195000Y-69215000D03*
%TD*%
M02*
