%TF.GenerationSoftware,KiCad,Pcbnew,(5.1.9)-1*%
%TF.CreationDate,2021-04-04T13:29:14+02:00*%
%TF.ProjectId,Rollosteuerung,526f6c6c-6f73-4746-9575-6572756e672e,1.0*%
%TF.SameCoordinates,Original*%
%TF.FileFunction,Copper,L1,Top*%
%TF.FilePolarity,Positive*%
%FSLAX46Y46*%
G04 Gerber Fmt 4.6, Leading zero omitted, Abs format (unit mm)*
G04 Created by KiCad (PCBNEW (5.1.9)-1) date 2021-04-04 13:29:14*
%MOMM*%
%LPD*%
G01*
G04 APERTURE LIST*
%TA.AperFunction,EtchedComponent*%
%ADD10C,1.000000*%
%TD*%
%TA.AperFunction,ComponentPad*%
%ADD11O,2.500000X2.500000*%
%TD*%
%TA.AperFunction,ComponentPad*%
%ADD12R,2.500000X2.500000*%
%TD*%
%TA.AperFunction,ComponentPad*%
%ADD13C,1.600000*%
%TD*%
%TA.AperFunction,ComponentPad*%
%ADD14O,1.600000X1.600000*%
%TD*%
%TA.AperFunction,ComponentPad*%
%ADD15C,1.727200*%
%TD*%
%TA.AperFunction,ComponentPad*%
%ADD16R,1.727200X1.727200*%
%TD*%
%TA.AperFunction,ComponentPad*%
%ADD17R,1.800000X1.800000*%
%TD*%
%TA.AperFunction,ComponentPad*%
%ADD18C,1.800000*%
%TD*%
%TA.AperFunction,ComponentPad*%
%ADD19R,1.600000X1.600000*%
%TD*%
%TA.AperFunction,ComponentPad*%
%ADD20O,2.800000X2.800000*%
%TD*%
%TA.AperFunction,ComponentPad*%
%ADD21R,2.800000X2.800000*%
%TD*%
%TA.AperFunction,SMDPad,CuDef*%
%ADD22C,0.100000*%
%TD*%
%TA.AperFunction,ComponentPad*%
%ADD23C,1.000000*%
%TD*%
%TA.AperFunction,ComponentPad*%
%ADD24C,1.350000*%
%TD*%
%TA.AperFunction,ComponentPad*%
%ADD25O,3.000000X1.500000*%
%TD*%
%TA.AperFunction,ComponentPad*%
%ADD26R,3.000000X1.500000*%
%TD*%
%TA.AperFunction,ComponentPad*%
%ADD27C,2.000000*%
%TD*%
%TA.AperFunction,ComponentPad*%
%ADD28C,2.350000*%
%TD*%
%TA.AperFunction,ConnectorPad*%
%ADD29R,1.350000X1.800000*%
%TD*%
%TA.AperFunction,ComponentPad*%
%ADD30O,1.500000X3.000000*%
%TD*%
%TA.AperFunction,ComponentPad*%
%ADD31R,1.500000X3.000000*%
%TD*%
%TA.AperFunction,ComponentPad*%
%ADD32R,2.000000X2.000000*%
%TD*%
%TA.AperFunction,ComponentPad*%
%ADD33R,3.000000X3.000000*%
%TD*%
%TA.AperFunction,ComponentPad*%
%ADD34C,3.000000*%
%TD*%
%TA.AperFunction,Conductor*%
%ADD35C,0.250000*%
%TD*%
%TA.AperFunction,Conductor*%
%ADD36C,0.500000*%
%TD*%
%TA.AperFunction,Conductor*%
%ADD37C,2.000000*%
%TD*%
G04 APERTURE END LIST*
D10*
%TO.C,AE1*%
X139463000Y-42884000D02*
X139463000Y-37884000D01*
X141463000Y-42884000D02*
X141463000Y-37884000D01*
X143463000Y-42884000D02*
X143463000Y-37884000D01*
X145463000Y-42884000D02*
X145463000Y-37884000D01*
X147463000Y-42884000D02*
X147463000Y-37884000D01*
X149463000Y-42884000D02*
X149463000Y-37884000D01*
X151463000Y-42884000D02*
X151463000Y-37884000D01*
X153463000Y-42884000D02*
X153463000Y-37884000D01*
X155463000Y-42884000D02*
X155463000Y-37884000D01*
X157463000Y-31884000D02*
X157463000Y-42884000D01*
%TD*%
D11*
%TO.P,RLY5,5*%
%TO.N,Q4*%
X207550000Y-91725000D03*
%TO.P,RLY5,4*%
%TO.N,GNDPWR*%
X195350000Y-91725000D03*
%TO.P,RLY5,3*%
%TO.N,+12P*%
X195350000Y-79725000D03*
%TO.P,RLY5,2*%
%TO.N,+5V*%
X207550000Y-79725000D03*
D12*
%TO.P,RLY5,1*%
%TO.N,Net-(J4-Pad2)*%
X209550000Y-85725000D03*
%TD*%
D11*
%TO.P,RLY4,5*%
%TO.N,Q3*%
X231045000Y-73945000D03*
%TO.P,RLY4,4*%
%TO.N,GNDPWR*%
X218845000Y-73945000D03*
%TO.P,RLY4,3*%
%TO.N,+12P*%
X218845000Y-61945000D03*
%TO.P,RLY4,2*%
%TO.N,+5V*%
X231045000Y-61945000D03*
D12*
%TO.P,RLY4,1*%
%TO.N,Net-(J4-Pad3)*%
X233045000Y-67945000D03*
%TD*%
D13*
%TO.P,R6,1*%
%TO.N,Q5*%
X163195000Y-62865000D03*
D14*
%TO.P,R6,2*%
%TO.N,Net-(D6-Pad1)*%
X173355000Y-62865000D03*
%TD*%
D15*
%TO.P,X1,12A*%
%TO.N,CSN*%
X137668000Y-92456000D03*
%TO.P,X1,3B*%
%TO.N,Net-(X1-Pad3B)*%
X137668000Y-89916000D03*
%TO.P,X1,2B*%
%TO.N,Net-(X1-Pad2B)*%
X137668000Y-87376000D03*
D16*
%TO.P,X1,1B*%
%TO.N,Net-(X1-Pad1B)*%
X137668000Y-84836000D03*
D15*
%TO.P,X1,11A*%
%TO.N,MOSI*%
X140208000Y-92456000D03*
%TO.P,X1,9A*%
%TO.N,SCLK*%
X145288000Y-92456000D03*
%TO.P,X1,10A*%
%TO.N,MISO*%
X142748000Y-92456000D03*
%TO.P,X1,6A*%
%TO.N,A2*%
X152908000Y-92456000D03*
%TO.P,X1,5A*%
%TO.N,A3*%
X155448000Y-92456000D03*
%TO.P,X1,7A*%
%TO.N,A1*%
X150368000Y-92456000D03*
%TO.P,X1,8A*%
%TO.N,A0*%
X147828000Y-92456000D03*
%TO.P,X1,4A*%
%TO.N,VCC*%
X157988000Y-92456000D03*
%TO.P,X1,3A*%
%TO.N,Net-(X1-Pad3A)*%
X160528000Y-92456000D03*
D16*
%TO.P,X1,1A*%
%TO.N,+5V*%
X165608000Y-92456000D03*
D15*
%TO.P,X1,2A*%
%TO.N,GND*%
X163068000Y-92456000D03*
%TO.P,X1,2D*%
%TO.N,Net-(X1-Pad2D)*%
X163068000Y-77216000D03*
D16*
%TO.P,X1,1D*%
%TO.N,Net-(X1-Pad1D)*%
X165608000Y-77216000D03*
D15*
%TO.P,X1,3D*%
%TO.N,Net-(X1-Pad3D)*%
X160528000Y-77216000D03*
%TO.P,X1,4D*%
%TO.N,GND*%
X157988000Y-77216000D03*
%TO.P,X1,8D*%
%TO.N,Net-(X1-Pad8D)*%
X147828000Y-77216000D03*
%TO.P,X1,7D*%
%TO.N,Net-(R8-Pad2)*%
X150368000Y-77216000D03*
%TO.P,X1,5D*%
%TO.N,GDO0*%
X155448000Y-77216000D03*
%TO.P,X1,6D*%
%TO.N,Net-(X1-Pad6D)*%
X152908000Y-77216000D03*
%TO.P,X1,10D*%
%TO.N,A4*%
X142748000Y-77216000D03*
%TO.P,X1,9D*%
%TO.N,Net-(X1-Pad9D)*%
X145288000Y-77216000D03*
%TO.P,X1,11D*%
%TO.N,Net-(SW1-Pad1)*%
X140208000Y-77216000D03*
%TO.P,X1,12D*%
%TO.N,A5*%
X137668000Y-77216000D03*
%TO.P,X1,5B*%
%TO.N,Net-(X1-Pad5B)*%
X156718000Y-89916000D03*
%TO.P,X1,4B*%
%TO.N,Net-(X1-Pad4B)*%
X154178000Y-89916000D03*
%TD*%
D13*
%TO.P,C3,1*%
%TO.N,VCC*%
X146685000Y-103505000D03*
%TO.P,C3,2*%
%TO.N,GND*%
X151685000Y-103505000D03*
%TD*%
%TO.P,C1,1*%
%TO.N,+5V*%
X163195000Y-103505000D03*
%TO.P,C1,2*%
%TO.N,GND*%
X158195000Y-103505000D03*
%TD*%
D17*
%TO.P,D8,1*%
%TO.N,GND*%
X183515000Y-71120000D03*
D18*
%TO.P,D8,2*%
%TO.N,Net-(D8-Pad2)*%
X180975000Y-71120000D03*
%TD*%
D17*
%TO.P,D7,1*%
%TO.N,GND*%
X183515000Y-65405000D03*
D18*
%TO.P,D7,2*%
%TO.N,Net-(D7-Pad2)*%
X180975000Y-65405000D03*
%TD*%
D14*
%TO.P,R5,2*%
%TO.N,Net-(D5-Pad1)*%
X173355000Y-59690000D03*
D13*
%TO.P,R5,1*%
%TO.N,Q4*%
X163195000Y-59690000D03*
%TD*%
D14*
%TO.P,R2,2*%
%TO.N,Net-(D2-Pad1)*%
X173355000Y-50165000D03*
D13*
%TO.P,R2,1*%
%TO.N,Q1*%
X163195000Y-50165000D03*
%TD*%
D14*
%TO.P,U2,18*%
%TO.N,Q0*%
X158115000Y-46990000D03*
%TO.P,U2,9*%
%TO.N,GND*%
X150495000Y-67310000D03*
%TO.P,U2,17*%
%TO.N,Q1*%
X158115000Y-49530000D03*
%TO.P,U2,8*%
%TO.N,Net-(U2-Pad8)*%
X150495000Y-64770000D03*
%TO.P,U2,16*%
%TO.N,Q2*%
X158115000Y-52070000D03*
%TO.P,U2,7*%
%TO.N,Net-(U2-Pad7)*%
X150495000Y-62230000D03*
%TO.P,U2,15*%
%TO.N,Q3*%
X158115000Y-54610000D03*
%TO.P,U2,6*%
%TO.N,A5*%
X150495000Y-59690000D03*
%TO.P,U2,14*%
%TO.N,Q4*%
X158115000Y-57150000D03*
%TO.P,U2,5*%
%TO.N,A4*%
X150495000Y-57150000D03*
%TO.P,U2,13*%
%TO.N,Q5*%
X158115000Y-59690000D03*
%TO.P,U2,4*%
%TO.N,A3*%
X150495000Y-54610000D03*
%TO.P,U2,12*%
%TO.N,Net-(U2-Pad12)*%
X158115000Y-62230000D03*
%TO.P,U2,3*%
%TO.N,A2*%
X150495000Y-52070000D03*
%TO.P,U2,11*%
%TO.N,Net-(U2-Pad11)*%
X158115000Y-64770000D03*
%TO.P,U2,2*%
%TO.N,A1*%
X150495000Y-49530000D03*
%TO.P,U2,10*%
%TO.N,+5V*%
X158115000Y-67310000D03*
D19*
%TO.P,U2,1*%
%TO.N,A0*%
X150495000Y-46990000D03*
%TD*%
D11*
%TO.P,RLY7,5*%
%TO.N,Net-(D10-Pad2)*%
X207550000Y-109505000D03*
%TO.P,RLY7,4*%
%TO.N,Net-(RLY7-Pad4)*%
X195350000Y-109505000D03*
%TO.P,RLY7,3*%
%TO.N,-Trafo*%
X195350000Y-97505000D03*
%TO.P,RLY7,2*%
%TO.N,+5V*%
X207550000Y-97505000D03*
D12*
%TO.P,RLY7,1*%
%TO.N,-Rel*%
X209550000Y-103505000D03*
%TD*%
D11*
%TO.P,RLY6,5*%
%TO.N,Q5*%
X231045000Y-91725000D03*
%TO.P,RLY6,4*%
%TO.N,GNDPWR*%
X218845000Y-91725000D03*
%TO.P,RLY6,3*%
%TO.N,+12P*%
X218845000Y-79725000D03*
%TO.P,RLY6,2*%
%TO.N,+5V*%
X231045000Y-79725000D03*
D12*
%TO.P,RLY6,1*%
%TO.N,Net-(J4-Pad1)*%
X233045000Y-85725000D03*
%TD*%
D11*
%TO.P,RLY3,5*%
%TO.N,Q2*%
X207550000Y-73945000D03*
%TO.P,RLY3,4*%
%TO.N,GNDPWR*%
X195350000Y-73945000D03*
%TO.P,RLY3,3*%
%TO.N,+12P*%
X195350000Y-61945000D03*
%TO.P,RLY3,2*%
%TO.N,+5V*%
X207550000Y-61945000D03*
D12*
%TO.P,RLY3,1*%
%TO.N,Net-(J4-Pad4)*%
X209550000Y-67945000D03*
%TD*%
D11*
%TO.P,RLY2,5*%
%TO.N,Q1*%
X231045000Y-56165000D03*
%TO.P,RLY2,4*%
%TO.N,GNDPWR*%
X218845000Y-56165000D03*
%TO.P,RLY2,3*%
%TO.N,+12P*%
X218845000Y-44165000D03*
%TO.P,RLY2,2*%
%TO.N,+5V*%
X231045000Y-44165000D03*
D12*
%TO.P,RLY2,1*%
%TO.N,Net-(J4-Pad5)*%
X233045000Y-50165000D03*
%TD*%
D11*
%TO.P,RLY1,5*%
%TO.N,Q0*%
X207550000Y-56165000D03*
%TO.P,RLY1,4*%
%TO.N,GNDPWR*%
X195350000Y-56165000D03*
%TO.P,RLY1,3*%
%TO.N,+12P*%
X195350000Y-44165000D03*
%TO.P,RLY1,2*%
%TO.N,+5V*%
X207550000Y-44165000D03*
D12*
%TO.P,RLY1,1*%
%TO.N,Net-(J4-Pad6)*%
X209550000Y-50165000D03*
%TD*%
D20*
%TO.P,D15,2*%
%TO.N,Net-(D10-Pad2)*%
X229870000Y-97790000D03*
D21*
%TO.P,D15,1*%
%TO.N,Q5*%
X240030000Y-97790000D03*
%TD*%
D20*
%TO.P,D14,2*%
%TO.N,Net-(D10-Pad2)*%
X229870000Y-102235000D03*
D21*
%TO.P,D14,1*%
%TO.N,Q4*%
X240030000Y-102235000D03*
%TD*%
D20*
%TO.P,D13,2*%
%TO.N,Net-(D10-Pad2)*%
X229870000Y-106680000D03*
D21*
%TO.P,D13,1*%
%TO.N,Q3*%
X240030000Y-106680000D03*
%TD*%
D20*
%TO.P,D12,2*%
%TO.N,Net-(D10-Pad2)*%
X226060000Y-106680000D03*
D21*
%TO.P,D12,1*%
%TO.N,Q2*%
X215900000Y-106680000D03*
%TD*%
D20*
%TO.P,D11,2*%
%TO.N,Net-(D10-Pad2)*%
X226060000Y-102235000D03*
D21*
%TO.P,D11,1*%
%TO.N,Q1*%
X215900000Y-102235000D03*
%TD*%
D20*
%TO.P,D10,2*%
%TO.N,Net-(D10-Pad2)*%
X226060000Y-97790000D03*
D21*
%TO.P,D10,1*%
%TO.N,Q0*%
X215900000Y-97790000D03*
%TD*%
%TA.AperFunction,SMDPad,CuDef*%
D22*
%TO.P,AE1,1*%
%TO.N,Net-(AE1-Pad1)*%
G36*
X157113000Y-31584000D02*
G01*
X157413000Y-30784000D01*
X157513000Y-30784000D01*
X157813000Y-31584000D01*
X157113000Y-31584000D01*
G37*
%TD.AperFunction*%
D23*
%TO.P,AE1,*%
%TO.N,*%
X157463000Y-42884000D03*
X155463000Y-37884000D03*
X155463000Y-42884000D03*
X153463000Y-42884000D03*
X153463000Y-37884000D03*
X151463000Y-37884000D03*
X151463000Y-42884000D03*
X149463000Y-42884000D03*
X149463000Y-37884000D03*
X147463000Y-37884000D03*
X147463000Y-42884000D03*
X145463000Y-42884000D03*
X145463000Y-37884000D03*
X143463000Y-42884000D03*
X143463000Y-37884000D03*
X141463000Y-37884000D03*
X141463000Y-42884000D03*
D24*
X139463000Y-42884000D03*
D23*
X139463000Y-37884000D03*
%TD*%
D25*
%TO.P,J4,6*%
%TO.N,Net-(J4-Pad6)*%
X248840000Y-55899000D03*
X243840000Y-55899000D03*
%TO.P,J4,5*%
%TO.N,Net-(J4-Pad5)*%
X248840000Y-60899000D03*
X243840000Y-60899000D03*
%TO.P,J4,4*%
%TO.N,Net-(J4-Pad4)*%
X248840000Y-65899000D03*
X243840000Y-65899000D03*
%TO.P,J4,3*%
%TO.N,Net-(J4-Pad3)*%
X248840000Y-70899000D03*
X243840000Y-70899000D03*
%TO.P,J4,2*%
%TO.N,Net-(J4-Pad2)*%
X248840000Y-75899000D03*
X243840000Y-75899000D03*
D26*
%TO.P,J4,1*%
%TO.N,Net-(J4-Pad1)*%
X248840000Y-80899000D03*
X243840000Y-80899000D03*
%TD*%
D27*
%TO.P,SW1,1*%
%TO.N,Net-(SW1-Pad1)*%
X184935000Y-77470000D03*
%TO.P,SW1,2*%
%TO.N,GND*%
X184935000Y-81970000D03*
%TO.P,SW1,1*%
%TO.N,Net-(SW1-Pad1)*%
X178435000Y-77470000D03*
%TO.P,SW1,2*%
%TO.N,GND*%
X178435000Y-81970000D03*
%TD*%
D28*
%TO.P,F1,1*%
%TO.N,-Trafo*%
X123190000Y-97790000D03*
%TO.P,F1,2*%
%TO.N,Net-(F1-Pad2)*%
X123190000Y-105410000D03*
X128270000Y-105410000D03*
%TO.P,F1,1*%
%TO.N,-Trafo*%
X128270000Y-97790000D03*
%TD*%
D29*
%TO.P,U1,7*%
%TO.N,GDO0*%
X143421000Y-61873000D03*
%TO.P,U1,6*%
%TO.N,Net-(U1-Pad6)*%
X141421000Y-61873000D03*
%TO.P,U1,5*%
%TO.N,MISO*%
X139421000Y-61873000D03*
%TO.P,U1,4*%
%TO.N,SCLK*%
X137421000Y-61873000D03*
%TO.P,U1,3*%
%TO.N,MOSI*%
X135421000Y-61873000D03*
%TO.P,U1,2*%
%TO.N,GND*%
X133421000Y-61873000D03*
%TO.P,U1,1*%
%TO.N,VCC*%
X131421000Y-61873000D03*
D24*
%TO.P,U1,7*%
%TO.N,GDO0*%
X143421000Y-60873000D03*
%TO.P,U1,6*%
%TO.N,Net-(U1-Pad6)*%
X141421000Y-60873000D03*
%TO.P,U1,5*%
%TO.N,MISO*%
X139421000Y-60873000D03*
%TO.P,U1,4*%
%TO.N,SCLK*%
X137421000Y-60873000D03*
%TO.P,U1,3*%
%TO.N,MOSI*%
X135421000Y-60873000D03*
%TO.P,U1,2*%
%TO.N,GND*%
X133421000Y-60873000D03*
%TO.P,U1,1*%
%TO.N,VCC*%
X131421000Y-60873000D03*
D29*
%TO.P,U1,8*%
%TO.N,CSN*%
X145421000Y-61873000D03*
D24*
X145421000Y-60873000D03*
%TD*%
D30*
%TO.P,J2,2*%
%TO.N,-Rel*%
X153590000Y-120570000D03*
X153590000Y-115570000D03*
D31*
%TO.P,J2,1*%
%TO.N,Net-(J1-Pad1)*%
X148590000Y-120570000D03*
X148590000Y-115570000D03*
%TD*%
D30*
%TO.P,J1,3*%
%TO.N,Net-(F1-Pad2)*%
X128110000Y-120570000D03*
X128110000Y-115570000D03*
%TO.P,J1,2*%
%TO.N,Net-(J1-Pad2)*%
X123110000Y-120570000D03*
X123110000Y-115570000D03*
D31*
%TO.P,J1,1*%
%TO.N,Net-(J1-Pad1)*%
X118110000Y-120570000D03*
X118110000Y-115570000D03*
%TD*%
D30*
%TO.P,J3,2*%
%TO.N,Net-(D9-Pad3)*%
X170100000Y-120570000D03*
X170100000Y-115570000D03*
D31*
%TO.P,J3,1*%
%TO.N,Net-(D9-Pad2)*%
X165100000Y-120570000D03*
X165100000Y-115570000D03*
%TD*%
D13*
%TO.P,C2,2*%
%TO.N,GND*%
X120610000Y-40640000D03*
D19*
%TO.P,C2,1*%
%TO.N,+5V*%
X118110000Y-40640000D03*
%TD*%
D32*
%TO.P,D9,1*%
%TO.N,GNDPWR*%
X221615000Y-117475000D03*
D27*
%TO.P,D9,2*%
%TO.N,Net-(D9-Pad2)*%
X214115000Y-117475000D03*
%TO.P,D9,3*%
%TO.N,Net-(D9-Pad3)*%
X206615000Y-117475000D03*
%TO.P,D9,4*%
%TO.N,+12P*%
X196615000Y-117475000D03*
%TD*%
D17*
%TO.P,D6,1*%
%TO.N,Net-(D6-Pad1)*%
X180975000Y-59690000D03*
D18*
%TO.P,D6,2*%
%TO.N,+5V*%
X183515000Y-59690000D03*
%TD*%
%TO.P,D5,2*%
%TO.N,+5V*%
X183515000Y-57150000D03*
D17*
%TO.P,D5,1*%
%TO.N,Net-(D5-Pad1)*%
X180975000Y-57150000D03*
%TD*%
D18*
%TO.P,D4,2*%
%TO.N,+5V*%
X183515000Y-54610000D03*
D17*
%TO.P,D4,1*%
%TO.N,Net-(D4-Pad1)*%
X180975000Y-54610000D03*
%TD*%
D18*
%TO.P,D3,2*%
%TO.N,+5V*%
X183515000Y-52070000D03*
D17*
%TO.P,D3,1*%
%TO.N,Net-(D3-Pad1)*%
X180975000Y-52070000D03*
%TD*%
D18*
%TO.P,D2,2*%
%TO.N,+5V*%
X183515000Y-49530000D03*
D17*
%TO.P,D2,1*%
%TO.N,Net-(D2-Pad1)*%
X180975000Y-49530000D03*
%TD*%
D18*
%TO.P,D1,2*%
%TO.N,+5V*%
X183515000Y-46990000D03*
D17*
%TO.P,D1,1*%
%TO.N,Net-(D1-Pad1)*%
X180975000Y-46990000D03*
%TD*%
D33*
%TO.P,PS1,1*%
%TO.N,Net-(J1-Pad1)*%
X112522000Y-90170000D03*
D34*
%TO.P,PS1,4*%
%TO.N,+5V*%
X115272000Y-51670000D03*
%TO.P,PS1,2*%
%TO.N,-Trafo*%
X123272000Y-90170000D03*
%TO.P,PS1,3*%
%TO.N,GND*%
X123272000Y-51670000D03*
%TD*%
D13*
%TO.P,R1,1*%
%TO.N,Q0*%
X163195000Y-46990000D03*
D14*
%TO.P,R1,2*%
%TO.N,Net-(D1-Pad1)*%
X173355000Y-46990000D03*
%TD*%
%TO.P,R3,2*%
%TO.N,Net-(D3-Pad1)*%
X173355000Y-53340000D03*
D13*
%TO.P,R3,1*%
%TO.N,Q2*%
X163195000Y-53340000D03*
%TD*%
%TO.P,R4,1*%
%TO.N,Q3*%
X163195000Y-56515000D03*
D14*
%TO.P,R4,2*%
%TO.N,Net-(D4-Pad1)*%
X173355000Y-56515000D03*
%TD*%
D13*
%TO.P,R7,1*%
%TO.N,Net-(D7-Pad2)*%
X173355000Y-66040000D03*
D14*
%TO.P,R7,2*%
%TO.N,+5V*%
X163195000Y-66040000D03*
%TD*%
D13*
%TO.P,R8,1*%
%TO.N,Net-(D8-Pad2)*%
X173355000Y-69215000D03*
D14*
%TO.P,R8,2*%
%TO.N,Net-(R8-Pad2)*%
X163195000Y-69215000D03*
%TD*%
D35*
%TO.N,Net-(U1-Pad6)*%
X141421000Y-60873000D02*
X141421000Y-61873000D01*
D36*
%TO.N,+5V*%
X204725000Y-46990000D02*
X207550000Y-44165000D01*
X183515000Y-46990000D02*
X204725000Y-46990000D01*
D35*
X156989999Y-66184999D02*
X158115000Y-67310000D01*
D36*
X156210000Y-65405000D02*
X158115000Y-67310000D01*
X156210000Y-46990000D02*
X156210000Y-65405000D01*
X154305000Y-45085000D02*
X156210000Y-46990000D01*
X121857000Y-45085000D02*
X154305000Y-45085000D01*
X115272000Y-51670000D02*
X121857000Y-45085000D01*
D35*
%TO.N,GND*%
X133421000Y-60873000D02*
X133421000Y-61873000D01*
D36*
X150495000Y-67310000D02*
X155575000Y-67310000D01*
X157988000Y-69723000D02*
X157416500Y-69151500D01*
X157988000Y-77216000D02*
X157988000Y-69723000D01*
X155575000Y-67310000D02*
X157416500Y-69151500D01*
D35*
%TO.N,A3*%
X150495000Y-54610000D02*
X149225000Y-54610000D01*
X148590000Y-55245000D02*
X148590000Y-56324500D01*
X149225000Y-54610000D02*
X148590000Y-55245000D01*
X148590000Y-56324500D02*
X148590000Y-55880000D01*
X151638000Y-79756000D02*
X155448000Y-83566000D01*
X148590000Y-56324500D02*
X148590000Y-71755000D01*
X155448000Y-92456000D02*
X155448000Y-83566000D01*
X151638000Y-75387200D02*
X151638000Y-74803000D01*
X151638000Y-74803000D02*
X151142700Y-74307700D01*
X148590000Y-71755000D02*
X151142700Y-74307700D01*
X151638000Y-74930000D02*
X151638000Y-75387200D01*
X151638000Y-75133200D02*
X151638000Y-79756000D01*
%TO.N,A2*%
X150495000Y-52070000D02*
X148590000Y-52070000D01*
X148590000Y-52070000D02*
X147955000Y-52705000D01*
X147955000Y-52705000D02*
X147955000Y-54102000D01*
X147955000Y-54102000D02*
X147955000Y-53975000D01*
X147955000Y-73660000D02*
X147955000Y-54102000D01*
X149098000Y-74803000D02*
X147955000Y-73660000D01*
X149098000Y-88646000D02*
X149098000Y-88036400D01*
X152908000Y-92456000D02*
X149098000Y-88646000D01*
X149098000Y-88036400D02*
X149098000Y-74803000D01*
%TO.N,A1*%
X150495000Y-49530000D02*
X148590000Y-49530000D01*
X148590000Y-49530000D02*
X147320000Y-50800000D01*
X147320000Y-50800000D02*
X147320000Y-52133500D01*
X147320000Y-52133500D02*
X147320000Y-52070000D01*
X146558000Y-64770000D02*
X147320000Y-64008000D01*
X147320000Y-64008000D02*
X147320000Y-52133500D01*
X146558000Y-88646000D02*
X146558000Y-88341200D01*
X150368000Y-92456000D02*
X146558000Y-88646000D01*
X146558000Y-88341200D02*
X146558000Y-64770000D01*
%TO.N,A0*%
X148780500Y-46990000D02*
X150495000Y-46990000D01*
X146685000Y-49085500D02*
X148780500Y-46990000D01*
X146685000Y-63500000D02*
X146685000Y-49085500D01*
X144018000Y-88646000D02*
X144246600Y-88874600D01*
X144246600Y-88874600D02*
X144145000Y-88773000D01*
X147828000Y-92456000D02*
X144246600Y-88874600D01*
X144018000Y-66167000D02*
X145503900Y-64681100D01*
X144018000Y-66548000D02*
X144018000Y-66167000D01*
X145503900Y-64681100D02*
X146685000Y-63500000D01*
X144145000Y-66040000D02*
X145503900Y-64681100D01*
X144018000Y-66548000D02*
X144018000Y-88646000D01*
%TO.N,GDO0*%
X143421000Y-60873000D02*
X143421000Y-61873000D01*
%TO.N,MISO*%
X139421000Y-60873000D02*
X139421000Y-61873000D01*
X135890000Y-66548000D02*
X135890000Y-78740000D01*
X139421000Y-63017000D02*
X135890000Y-66548000D01*
X139421000Y-60873000D02*
X139421000Y-63017000D01*
X142748000Y-92456000D02*
X142748000Y-85598000D01*
X142748000Y-85598000D02*
X142163800Y-85013800D01*
X135890000Y-78740000D02*
X142163800Y-85013800D01*
%TO.N,SCLK*%
X137421000Y-60873000D02*
X137421000Y-61873000D01*
X134620000Y-91757500D02*
X134651750Y-91789250D01*
X134620000Y-65824000D02*
X134620000Y-91757500D01*
X137421000Y-63023000D02*
X134620000Y-65824000D01*
X137421000Y-60873000D02*
X137421000Y-63023000D01*
X134651750Y-91789250D02*
X137477500Y-94615000D01*
X143129000Y-94615000D02*
X142671800Y-94615000D01*
X145288000Y-92456000D02*
X143129000Y-94615000D01*
X142671800Y-94615000D02*
X137477500Y-94615000D01*
X142938500Y-94615000D02*
X142671800Y-94615000D01*
%TO.N,MOSI*%
X135421000Y-60873000D02*
X135421000Y-61873000D01*
%TO.N,VCC*%
X131421000Y-60873000D02*
X131421000Y-61873000D01*
D36*
X146685000Y-103505000D02*
X141605000Y-103505000D01*
X131421000Y-93321000D02*
X131421000Y-85241000D01*
X141605000Y-103505000D02*
X131421000Y-93321000D01*
X131421000Y-85241000D02*
X131421000Y-85701000D01*
X131421000Y-60873000D02*
X131421000Y-85241000D01*
D35*
%TO.N,CSN*%
X145421000Y-60873000D02*
X145421000Y-61873000D01*
%TO.N,Q0*%
X163195000Y-46990000D02*
X163195000Y-46926500D01*
D36*
X186055000Y-53340000D02*
X204725000Y-53340000D01*
X204725000Y-53340000D02*
X207550000Y-56165000D01*
X186055000Y-53340000D02*
X185420000Y-53975000D01*
X184785000Y-61595000D02*
X185420000Y-60960000D01*
X179705000Y-61595000D02*
X184785000Y-61595000D01*
X179070000Y-60960000D02*
X179705000Y-61595000D01*
X179070000Y-53692499D02*
X179070000Y-60960000D01*
X173955001Y-48577500D02*
X179070000Y-53692499D01*
X172739999Y-48577500D02*
X173955001Y-48577500D01*
X171152499Y-46990000D02*
X172739999Y-48577500D01*
X163195000Y-46990000D02*
X171152499Y-46990000D01*
X205448538Y-94996000D02*
X200660000Y-90207462D01*
X213360000Y-94996000D02*
X205448538Y-94996000D01*
X215900000Y-97536000D02*
X213360000Y-94996000D01*
X215900000Y-97790000D02*
X215900000Y-97536000D01*
X200660000Y-77165200D02*
X200660000Y-76657200D01*
X200660000Y-90207462D02*
X200660000Y-77165200D01*
X161544000Y-48920400D02*
X161544000Y-48240001D01*
X164592000Y-73152000D02*
X161544000Y-70104000D01*
X189992000Y-73152000D02*
X164592000Y-73152000D01*
X191516000Y-71628000D02*
X189992000Y-73152000D01*
X161544000Y-70104000D02*
X161544000Y-48920400D01*
X197104000Y-71628000D02*
X191516000Y-71628000D01*
X200660000Y-75184000D02*
X197104000Y-71628000D01*
X200660000Y-77165200D02*
X200660000Y-75184000D01*
X185420000Y-60960000D02*
X185420000Y-53975000D01*
X160578800Y-46990000D02*
X161544000Y-47955200D01*
X158115000Y-46990000D02*
X160578800Y-46990000D01*
X161544000Y-47955200D02*
X161544000Y-48920400D01*
%TO.N,Q1*%
X215900000Y-102235000D02*
X215469999Y-101804999D01*
X214249000Y-100584000D02*
X215900000Y-102235000D01*
X199136000Y-91948000D02*
X207772000Y-100584000D01*
X207772000Y-100584000D02*
X214249000Y-100584000D01*
X199136000Y-77724000D02*
X199136000Y-91948000D01*
X192024000Y-76200000D02*
X197612000Y-76200000D01*
X164084000Y-74168000D02*
X189992000Y-74168000D01*
X160528000Y-70612000D02*
X164084000Y-74168000D01*
X160528000Y-50779435D02*
X160528000Y-70612000D01*
X197612000Y-76200000D02*
X199136000Y-77724000D01*
X159278565Y-49530000D02*
X160528000Y-50779435D01*
X189992000Y-74168000D02*
X192024000Y-76200000D01*
X158115000Y-49530000D02*
X159278565Y-49530000D01*
X228155500Y-59054500D02*
X231045000Y-56165000D01*
X228155500Y-59055000D02*
X228155500Y-59054500D01*
X187655200Y-62547500D02*
X191147700Y-59055000D01*
X179387500Y-62547500D02*
X187655200Y-62547500D01*
X177800000Y-60960000D02*
X179387500Y-62547500D01*
X177800000Y-54572537D02*
X177800000Y-60960000D01*
X191147700Y-59055000D02*
X228155500Y-59055000D01*
X174979963Y-51752500D02*
X177800000Y-54572537D01*
X172720000Y-51752500D02*
X174979963Y-51752500D01*
X171132500Y-50165000D02*
X172720000Y-51752500D01*
X163195000Y-50165000D02*
X171132500Y-50165000D01*
%TO.N,Q2*%
X187769500Y-63500000D02*
X188595000Y-64325500D01*
X176530000Y-60960000D02*
X179070000Y-63500000D01*
X176530000Y-55562500D02*
X176530000Y-60960000D01*
X175895000Y-54927500D02*
X176530000Y-55562500D01*
X172402500Y-54927500D02*
X175895000Y-54927500D01*
X179070000Y-63500000D02*
X187769500Y-63500000D01*
X170815000Y-53340000D02*
X172402500Y-54927500D01*
X163195000Y-53340000D02*
X170815000Y-53340000D01*
X196596000Y-77216000D02*
X197612000Y-78232000D01*
X189280800Y-75184000D02*
X191312800Y-77216000D01*
X163576000Y-75184000D02*
X189280800Y-75184000D01*
X191312800Y-77216000D02*
X196596000Y-77216000D01*
X159512000Y-71120000D02*
X163576000Y-75184000D01*
X159512000Y-53467000D02*
X159512000Y-71120000D01*
X158115000Y-52070000D02*
X159512000Y-53467000D01*
X197612000Y-94927802D02*
X197662800Y-94927802D01*
X215900000Y-106680000D02*
X203200000Y-106680000D01*
X203200000Y-106680000D02*
X197612000Y-101092000D01*
X197612000Y-101092000D02*
X197612000Y-93319600D01*
X197612000Y-93319600D02*
X197612000Y-94927802D01*
X197612000Y-78232000D02*
X197612000Y-93319600D01*
X188595000Y-64338200D02*
X190550800Y-66294000D01*
X188595000Y-64325500D02*
X188595000Y-64338200D01*
X207550000Y-73945000D02*
X205466200Y-73945000D01*
X205466200Y-73945000D02*
X197815200Y-66294000D01*
X190550800Y-66294000D02*
X197815200Y-66294000D01*
%TO.N,Q3*%
X163195000Y-56515000D02*
X170751500Y-56515000D01*
X170751500Y-56515000D02*
X172339000Y-58102500D01*
X174625000Y-58102500D02*
X175260000Y-58737500D01*
X175260000Y-58737500D02*
X175260000Y-60960000D01*
X175260000Y-60960000D02*
X179070000Y-64770000D01*
X172339000Y-58102500D02*
X174625000Y-58102500D01*
X179070000Y-64770000D02*
X179070000Y-66675000D01*
X179070000Y-66675000D02*
X179705000Y-67310000D01*
X228155000Y-76835000D02*
X231045000Y-73945000D01*
X197358000Y-67310000D02*
X197739000Y-67691000D01*
X179705000Y-67310000D02*
X197358000Y-67310000D01*
X197739000Y-67691000D02*
X202184000Y-72136000D01*
X206883000Y-76835000D02*
X205816200Y-75768200D01*
X207899000Y-76835000D02*
X206883000Y-76835000D01*
X202184000Y-72136000D02*
X205816200Y-75768200D01*
X207899000Y-76835000D02*
X228155000Y-76835000D01*
%TO.N,Q4*%
X163195000Y-59690000D02*
X170815000Y-59690000D01*
X170815000Y-59690000D02*
X172402500Y-61277500D01*
X172402500Y-61277500D02*
X174307500Y-61277500D01*
X174327499Y-61297499D02*
X177863500Y-64833500D01*
X238179999Y-100384999D02*
X240030000Y-102235000D01*
X177863500Y-66458462D02*
X177863500Y-66421000D01*
X177863500Y-64833500D02*
X177863500Y-66421000D01*
X209900000Y-91725000D02*
X207550000Y-91725000D01*
X213360000Y-88265000D02*
X209900000Y-91725000D01*
X231140000Y-88265000D02*
X213360000Y-88265000D01*
X237490000Y-94615000D02*
X231140000Y-88265000D01*
X240030000Y-102235000D02*
X237490000Y-99695000D01*
X237490000Y-99695000D02*
X237490000Y-94615000D01*
X207550000Y-91744800D02*
X203708000Y-87902800D01*
X203708000Y-87933800D02*
X203708000Y-83870800D01*
X196850000Y-68326000D02*
X202184000Y-73660000D01*
X179451000Y-68326000D02*
X196850000Y-68326000D01*
X177863500Y-66738500D02*
X179451000Y-68326000D01*
X177863500Y-66421000D02*
X177863500Y-66738500D01*
X202184000Y-73660000D02*
X203708000Y-75184000D01*
X203708000Y-75184000D02*
X203708000Y-83820000D01*
%TO.N,Q5*%
X215265000Y-89535000D02*
X228855000Y-89535000D01*
X210820000Y-93980000D02*
X215265000Y-89535000D01*
X206044800Y-93980000D02*
X210820000Y-93980000D01*
X202184000Y-90119200D02*
X206044800Y-93980000D01*
X202184000Y-75184000D02*
X202184000Y-90119200D01*
X196215000Y-69215000D02*
X202184000Y-75184000D01*
X179070000Y-69215000D02*
X196215000Y-69215000D01*
X228855000Y-89535000D02*
X231045000Y-91725000D01*
X174307500Y-64452500D02*
X179070000Y-69215000D01*
X172402500Y-64452500D02*
X174307500Y-64452500D01*
X170815000Y-62865000D02*
X172402500Y-64452500D01*
X163195000Y-62865000D02*
X170815000Y-62865000D01*
D37*
%TO.N,GNDPWR*%
X221615000Y-94495000D02*
X218845000Y-91725000D01*
X221615000Y-117475000D02*
X221615000Y-94495000D01*
%TO.N,+12P*%
X198240000Y-41275000D02*
X198564500Y-41275000D01*
X195350000Y-44165000D02*
X198240000Y-41275000D01*
X215955000Y-41275000D02*
X214820500Y-41275000D01*
X218845000Y-44165000D02*
X215955000Y-41275000D01*
X198564500Y-41275000D02*
X214820500Y-41275000D01*
X195350000Y-79725000D02*
X190436500Y-84638500D01*
X190436500Y-111296500D02*
X196615000Y-117475000D01*
X190436500Y-84638500D02*
X190436500Y-111296500D01*
%TO.N,Net-(J4-Pad2)*%
X212725000Y-82550000D02*
X209550000Y-85725000D01*
X233680000Y-82550000D02*
X212725000Y-82550000D01*
X233680000Y-82486500D02*
X233680000Y-82550000D01*
X240267500Y-75899000D02*
X233680000Y-82486500D01*
X243840000Y-75899000D02*
X240267500Y-75899000D01*
%TO.N,Net-(J4-Pad4)*%
X243435999Y-65494999D02*
X243840000Y-65899000D01*
X212725000Y-64770000D02*
X209550000Y-67945000D01*
X243826000Y-65899000D02*
X242697000Y-64770000D01*
X243840000Y-65899000D02*
X243826000Y-65899000D01*
X242697000Y-64770000D02*
X212725000Y-64770000D01*
%TO.N,Net-(J4-Pad6)*%
X212725000Y-46990000D02*
X209550000Y-50165000D01*
X234931000Y-46990000D02*
X233743500Y-46990000D01*
X243840000Y-55899000D02*
X234931000Y-46990000D01*
X233743500Y-46990000D02*
X212725000Y-46990000D01*
%TD*%
M02*
